<svg xmlns="http://www.w3.org/2000/svg" viewBox="0 0 357.52 322.07">
    <defs>
        <style>.cls-1{fill:none;stroke:#fff;stroke-miterlimit:10;stroke-width:10px;}</style>
    </defs>
    <title>spiral</title>
    <g id="Layer_2" data-name="Layer 2">
        <g id="Layer_1-2" data-name="Layer 1">
            <path class="cls-1" d="M196.45,142.38A38.42,38.42,0,0,0,158,104a42.68,42.68,0,0,0-42.68,42.69,47.43,47.43,0,0,0,47.42,47.43,52.7,52.7,0,0,0,52.7-52.7,58.55,58.55,0,0,0-58.55-58.56,65.06,65.06,0,0,0-65.06,65.06,72.28,72.28,0,0,0,72.29,72.29,80.32,80.32,0,0,0,80.32-80.32A89.25,89.25,0,0,0,155.22,50.6a99.17,99.17,0,0,0-99.16,99.17A110.18,110.18,0,0,0,166.24,260,122.42,122.42,0,0,0,288.66,137.52a136,136,0,0,0-136-136A151.14,151.14,0,0,0,1.5,152.64,167.94,167.94,0,0,0,169.43,320.57C272.48,320.57,356,237,356,134" />
        </g>
    </g>
</svg>