<?xml version="1.0" encoding="utf-8"?>
<!-- Generator: Adobe Illustrator 24.0.1, SVG Export Plug-In . SVG Version: 6.00 Build 0)  -->
<svg version="1.1" id="Layer_1" xmlns="http://www.w3.org/2000/svg" xmlns:xlink="http://www.w3.org/1999/xlink" x="0px" y="0px"
	 viewBox="0 0 1024 1024" style="enable-background:new 0 0 1024 1024;" xml:space="preserve">
<style type="text/css">
	.st0{display:none;fill:#161616;}
	.st1{fill:#E7EAEF;stroke:#9BA8B8;stroke-width:8;stroke-miterlimit:10;}
</style>
<rect y="1.08" class="st0" width="1022.92" height="1022.92"/>
<path class="st1" d="M492.16,200.09L21.65,283.05c-8.12,1.43-13.59,9.24-12.16,17.36l124.52,706.21
	c1.43,8.12,9.24,13.59,17.36,12.16l470.51-82.96c8.12-1.43,13.59-9.24,12.16-17.36L509.52,212.24
	C508.09,204.13,500.28,198.66,492.16,200.09z M150.07,423.48c-1.32-7.49,3.72-14.71,11.21-16.03l97.72-17.23
	c7.49-1.32,14.71,3.73,16.03,11.22l1.77,10.01c1.32,7.49-3.73,14.71-11.22,16.03l-97.72,17.23c-7.49,1.32-14.7-3.74-16.02-11.23
	L150.07,423.48z M183.33,612.12c-1.32-7.49,3.72-14.69,11.21-16.02l204.14-36c7.49-1.32,14.69,3.72,16.02,11.21l1.77,10.01
	c1.32,7.49-3.72,14.71-11.21,16.03l-204.14,36c-7.49,1.32-14.7-3.74-16.02-11.23L183.33,612.12z M127.28,765.02
	c-3.35,0.59-6.17-1.64-6.8-5.18s1.36-6.64,4.81-7.25c3.44-0.61,6.26,1.55,6.9,5.17C132.82,761.3,130.92,764.38,127.28,765.02z
	 M147.65,761.43c-3.35,0.59-6.17-1.65-6.8-5.19c-0.62-3.53,1.37-6.63,4.81-7.24s6.26,1.53,6.9,5.17
	C153.18,757.71,151.29,760.79,147.65,761.43z M168.02,757.84c-3.34,0.6-6.17-1.65-6.8-5.19c-0.62-3.54,1.37-6.63,4.81-7.24
	c3.44-0.61,6.26,1.53,6.9,5.19C173.55,754.12,171.66,757.21,168.02,757.84z M154.98,567.98l-32.46,59.01l-25.97-18.74
	c-2.24-1.62-2.74-4.74-1.13-6.98c1.62-2.24,4.74-2.75,6.98-1.13l16.81,12.13l27.01-49.11c1.32-2.41,4.36-3.29,6.78-1.97
	C155.43,562.53,156.3,565.55,154.98,567.98z M124.68,378.81l-32.44,59.01l-25.97-18.74c-2.24-1.61-2.75-4.73-1.13-6.97
	c1.61-2.24,4.73-2.75,6.97-1.13l16.81,12.13L115.93,374c1.34-2.42,4.36-3.31,6.78-1.97C125.14,373.35,126.02,376.39,124.68,378.81z
	 M500.86,685.11c1.32,7.49-3.72,14.69-11.23,16.02l-268.23,47.3c-7.49,1.32-14.69-3.72-16.02-11.21l-1.77-10.01
	c-1.32-7.49,3.72-14.71,11.21-16.03l268.23-47.3c7.5-1.32,14.71,3.73,16.03,11.22L500.86,685.11z M524.45,497.63
	c1.32,7.49-3.73,14.71-11.22,16.03l-323.17,56.98c-7.49,1.32-14.7-3.74-16.02-11.23l-1.77-10.01c-1.32-7.49,3.72-14.69,11.21-16.02
	l323.17-56.98c7.49-1.32,14.71,3.72,16.03,11.21L524.45,497.63z M491.08,308.38c1.32,7.49-3.73,14.71-11.22,16.03L156.69,381.4
	c-7.49,1.32-14.7-3.74-16.02-11.23l-1.77-10.01c-1.32-7.49,3.72-14.69,11.21-16.02l323.17-56.98c7.49-1.32,14.71,3.72,16.03,11.21
	L491.08,308.38z"/>
<path class="st1" d="M748.48,763.7c0-503.38-215.69-755.07-215.69-755.07S317.52,260.32,317.52,763.7
	c-215.48,0-215.48,251.67-215.48,251.67s107.54,0,161.6,0c53.68,0,53.87,0,53.87-123.17c0,123.17,0.38,123.17,53.87,123.17
	c11.57,0,53.87-62.91,53.87-62.91h215.46c0,0,42.23,62.91,53.87,62.91c43.12,0,51.73,0,53.44-62.91
	c0.41-15.21,0.44-34.08,0.44-57.53c0.04,120.44,1.78,120.44,52.89,120.44c51.86,0,162.58,0,162.58,0S964.53,764.22,748.48,763.7z
	 M370.97,681.88c0,9.08-6.36,16.51-14.14,16.51h-1.08c-7.78,0-14.14-7.43-14.14-16.51v-33.55c0-9.08,6.36-16.51,14.14-16.51h1.08
	c7.78,0,14.14,7.43,14.14,16.51V681.88z M429.87,681.88c0,9.08-6.36,16.51-14.14,16.51h-1.08c-7.78,0-14.14-7.43-14.14-16.51v-33.55
	c0-9.08,6.36-16.51,14.14-16.51h1.08c7.78,0,14.14,7.43,14.14,16.51V681.88z M488.78,681.88c0,9.08-6.36,16.51-14.14,16.51h-1.08
	c-7.78,0-14.14-7.43-14.14-16.51v-33.55c0-9.08,6.36-16.51,14.14-16.51h1.08c7.78,0,14.14,7.43,14.14,16.51V681.88z M547.68,681.88
	c0,9.08-6.36,16.51-14.14,16.51h-1.08c-7.78,0-14.14-7.43-14.14-16.51v-33.55c0-9.08,6.36-16.51,14.14-16.51h1.08
	c7.78,0,14.14,7.43,14.14,16.51V681.88z M606.58,681.88c0,9.08-6.36,16.51-14.14,16.51h-1.08c-7.78,0-14.14-7.43-14.14-16.51v-33.55
	c0-9.08,6.36-16.51,14.14-16.51h1.08c7.78,0,14.14,7.43,14.14,16.51V681.88z M533,480.54c-44.62,0-80.8-42.26-80.8-94.38
	s36.18-94.38,80.8-94.38s80.8,42.26,80.8,94.38S577.62,480.54,533,480.54z M665.48,681.88c0,9.08-6.36,16.51-14.14,16.51h-1.08
	c-7.78,0-14.14-7.43-14.14-16.51v-33.55c0-9.08,6.36-16.51,14.14-16.51h1.08c7.78,0,14.14,7.43,14.14,16.51V681.88z M724.38,681.88
	c0,9.08-6.36,16.51-14.14,16.51h-1.08c-7.78,0-14.14-7.43-14.14-16.51v-33.55c0-9.08,6.36-16.51,14.14-16.51h1.08
	c7.78,0,14.14,7.43,14.14,16.51V681.88z"/>
<g>
	<path class="st1" d="M989.98,448.78c-1.53,4.2-3.26,8.29-5.15,12.24l-13.33,22.14c-18.5,25.02-76.79,54.96-106.15,62.78
		c16.85-13.88,68.14-69.85,85-116.2c32.81-90.14-3.07-144.16-34.23-174.97c0,0,0.56,130.08-65.85,180.91c0,0-13.58-20.12-4.12-61.23
		c13.12-57.03,36.38-77.04,36.38-77.04s-65.79-2.42-100.22,75.84c-24.32,55.29-10.46,118.35-7.58,139.71
		c-25.71-27.02-50.17-81-47.84-118.82l4.03-25.53c1.09-4.24,2.4-8.49,3.93-12.69c9.19-25.25,25.09-46.12,44.94-61.29
		c0,0,0,0,0.04-0.02c0.04-0.02,0.07-0.03,0.12-0.08c3.06-2.38,7.37-5.38,10.64-7.55c0.05-0.04,6.22-4.55,6.29-4.59
		c16.75-13.02,43.95-40.19,65.91-100.54c28.91-79.43-19.69-111.78-22.93-113.86C847.22,71.88,1081.31,197.86,989.98,448.78z"/>
	<path class="st1" d="M894.65,496.96"/>
	<path class="st1" d="M881.32,519.11"/>
	<path class="st1" d="M770.12,785.12l-76.14-27.71c-4.1-1.49-6.4-5.86-5.31-10.09l66.05-227.64c0,0,20.23,29.02,53.88,41.27
		c33.65,12.25,67.38,3.91,67.38,3.91l-95.3,215.95C778.79,784.75,774.22,786.61,770.12,785.12z"/>
	<path class="st1" d="M481.31,1498.11l-24.47-8.91c-7.19-2.62-10.99-10.48-8.58-17.74l229.69-692.54c1.5-4.54,6.46-6.95,10.96-5.31
		l74.61,27.16c4.49,1.63,6.74,6.65,4.99,11.09l-269.21,678.18C496.46,1497.15,488.5,1500.73,481.31,1498.11z"/>
</g>
</svg>
