<svg id="Layer_1" data-name="Layer 1" xmlns="http://www.w3.org/2000/svg" viewBox="0 0 512 512">
    <defs>
        <style>.cls-1{fill:none;stroke:#fff;stroke-miterlimit:10;stroke-width:10px;}</style>
    </defs>
    <title>waves</title>
    <path class="cls-1" d="M0,129.77s128-128.54,256-.54,256,0,256,0" />
    <path class="cls-1" d="M0,194s128-128.54,256-.54,256,0,256,0" />
    <path class="cls-1" d="M0,1.54S128-127,256,1,512,1,512,1" />
    <path class="cls-1" d="M0,64.54S128-64,256,64s256,0,256,0" />
    <path class="cls-1" d="M0,384.31s128-128.54,256-.54,256,0,256,0" />
    <path class="cls-1" d="M0,448.54S128,320,256,448s256,0,256,0" />
    <path class="cls-1" d="M0,256.08s128-128.54,256-.54,256,0,256,0" />
    <path class="cls-1" d="M0,319.08s128-128.54,256-.54,256,0,256,0" />
    <path class="cls-1" d="M1.31,512.54s128-128.54,256-.54,256,0,256,0" />
</svg>