<svg id="Layer_1" data-name="Layer 1" xmlns="http://www.w3.org/2000/svg" viewBox="0 0 1024 1024"><defs><style>.cls-1{fill:#e7eaef;stroke:#9ba8b8;stroke-miterlimit:10;stroke-width:10px;}</style></defs><title>Artboard 1</title><path class="cls-1" d="M813.06,48.24a164,164,0,1,0,164,164A164,164,0,0,0,813.06,48.24ZM794.2,131.85a20.34,20.34,0,0,1,4.28-6.52,19.93,19.93,0,0,1,6.52-4.41,20.67,20.67,0,0,1,8.12-1.59,20.18,20.18,0,0,1,8,1.59,20,20,0,0,1,6.45,4.41,20.17,20.17,0,0,1,4.28,6.52,21.14,21.14,0,0,1,0,15.84,19.39,19.39,0,0,1-4.28,6.46,20.6,20.6,0,0,1-6.45,4.35,20.18,20.18,0,0,1-8,1.59,20.53,20.53,0,0,1-14.64-5.94,19.55,19.55,0,0,1-4.28-6.46,21.26,21.26,0,0,1,0-15.84Zm74.13,173.31H757.77V280.88h41.16V199.59H762.25V175.3h68.63V280.88h37.45Z"/><path class="cls-1" d="M750.85,736.31V964a50,50,0,0,1-50,50H323.15a50,50,0,0,1-50-50V736.31c0-109.7,88.33-198.76,197.72-200l20.32,42.56L463,725.23l49,114.64,49-114.64L532.81,578.89l20.33-42.56C662.55,537.55,750.85,626.62,750.85,736.31Z"/><circle class="cls-1" cx="512" cy="363" r="132.07"/><path class="cls-1" d="M123.9,547.08C53.8,285.48,92.1,219.14,92.1,219.14l130.81-35,42.06,157-52.33,14s-5.13,85.49,15.9,164,68.22,150,68.22,150l52.32-14,42.06,157-130.8,35S194,808.69,123.9,547.08Z"/></svg>