<?xml version="1.0" encoding="utf-8"?>
<!-- Generator: Adobe Illustrator 24.0.1, SVG Export Plug-In . SVG Version: 6.00 Build 0)  -->
<svg version="1.1" id="Layer_1" xmlns="http://www.w3.org/2000/svg" xmlns:xlink="http://www.w3.org/1999/xlink" x="0px" y="0px"
	 viewBox="0 0 1024 1024" style="enable-background:new 0 0 1024 1024;" xml:space="preserve">
<style type="text/css">
	.st0{fill:white;}
</style>
<path class="st0" d="M768,768C768,256,511.75,0,511.75,0S256,256,256,768C0,768,0,1024,0,1024s127.77,0,192,0
	c63.77,0,64,0,64-125.29C256,1024,256.45,1024,320,1024c13.75,0,64-64,64-64h256c0,0,50.17,64,64,64c51.22,0,61.45,0,63.49-64
	c0.49-15.46,0.51-34.67,0.51-58.52C768.05,1024,770.12,1024,830.85,1024c61.61,0,193.15,0,193.15,0S1024.69,768.54,768,768z
	 M512,480c-53.02,0-96-42.98-96-96c0-53.02,42.98-96,96-96s96,42.98,96,96C608,437.02,565.02,480,512,480z"/>
</svg>
